<svg xmlns="http://www.w3.org/2000/svg" viewBox="0 0 100 100"><path fill="#fff" d="M10 4.4L13.8 6c6.4 2.8 12.3 3.9 17.9 3.2 5.5-.7 10.9-3.2 16.4-7.6L50 0l1.9 1.6c5.5 4.5 10.8 7 16.4 7.6 5.6.7 11.5-.4 17.9-3.2L90 4.4c2.3 10.9 2.9 22.2 1.4 33.3C88.2 62.3 75.1 85 51.5 99.1l-1.5.9-1.5-.9C24.9 85 11.8 62.3 8.5 37.6c-1.4-11-.8-22.3 1.5-33.2z"/><path fill="#007242" fill-rule="evenodd" d="M15.6 14.6c-.4 2.9-.6 5.8-.6 8.7-.1 4.6.1 9.1.7 13.4C18.5 58.5 29.8 78.6 50 91.5c3.4-2.2 6.5-4.5 9.4-7.1 3.5-3 6.6-6.3 9.3-9.8 13.2-16.8 18.3-38.4 15.7-60-5.8 1.9-11.4 2.6-16.8 1.9-6.1-.7-11.9-3.1-17.6-7.3-5.8 4.2-11.6 6.6-17.6 7.3-5.4.7-11 0-16.8-1.9zM12.4 9c-6 33.8 6.2 68.4 37.6 87.3C81.4 77.4 93.6 42.8 87.6 9 73.7 15 61.9 13.9 50 4.1 38.1 13.9 26.3 15 12.4 9z" clip-rule="evenodd"/><path d="M64.1 59.6c.8-1.2 3.9.8 3.1 2-.5.8-1.1 1.5-1.7 2.1-.6.7-1.3 1.3-2 1.9-3.6 3-8.2 4.8-13.3 4.8-5.7 0-10.9-2.3-14.7-6.1-3.8-3.8-6.1-9-6.1-14.7 0-5.7 2.3-10.9 6.1-14.7 3.8-3.8 9-6.1 14.7-6.1 3.5 0 6.8.9 9.7 2.4.5.3 1 .5 1.4.8 2.3 1.5 4.3 3.4 5.9 5.6.8 1.1-2.2 3.2-3 2.1-1.3-1.8-3-3.4-4.8-4.6-.4-.2-.8-.5-1.1-.7-2.4-1.3-5.1-2-8-2-4.7 0-9 1.9-12.1 5-3.1 3.1-5 7.4-5 12.1 0 4.7 1.9 9 5 12.1 3.1 3.1 7.4 5 12.1 5 4.1 0 7.9-1.5 10.9-4 .6-.5 1.1-1 1.6-1.5.4-.4.9-.9 1.3-1.5z" fill="#007242"/><path d="M63.9 46c.8 0 .8 3.7 0 3.7H51.8v26.9c0 .8-3.7.8-3.7 0V25.5H35.6c-.8 0-.8-3.7 0-3.7H70c.8 0 .8 3.7 0 3.7H51.8V46h12.1z" fill="#007242"/><path d="M38.4 72.4c-.1.9-4 .6-4-.3.5-5.5 1-10.9 1.9-16.2.9-5.3 2.2-10.3 4.1-15.1.2-.6.5-1.1.9-1.6.6-.7 1.4-1.2 2.5-1.2h12.3c1.1 0 1.9.5 2.5 1.2.4.5.7 1 .9 1.6 2 4.8 3.2 9.9 4.1 15.1.9 5.3 1.4 10.7 1.9 16.2.1.9-3.9 1.2-4 .3-.5-5.2-1-10.2-1.7-14.8H40.1c-.8 4.7-1.3 9.6-1.7 14.8zm5.7-30.1c-1.5 3.6-2.6 7.4-3.4 11.4h18.4c-.8-3.9-1.9-7.7-3.4-11.4 0-.1-.1-.2-.1-.3H44.3c-.1 0-.1.1-.2.3z" fill="#007242"/></svg>
