<?xml version="1.0" encoding="utf-8"?>
<!-- Generator: Adobe Illustrator 16.0.0, SVG Export Plug-In . SVG Version: 6.00 Build 0)  -->
<!DOCTYPE svg PUBLIC "-//W3C//DTD SVG 1.1//EN" "http://www.w3.org/Graphics/SVG/1.1/DTD/svg11.dtd">
<svg version="1.1" id="Camada_1" xmlns="http://www.w3.org/2000/svg" xmlns:xlink="http://www.w3.org/1999/xlink" x="0px" y="0px"
	 width="440.965px" height="440.963px" viewBox="0 0 440.965 440.963" enable-background="new 0 0 440.965 440.963"
	 xml:space="preserve">
<g>
	<path fill-rule="evenodd" clip-rule="evenodd" d="M0,220.433c0,121.601,98.93,220.531,220.532,220.531
		c121.548,0,220.433-98.93,220.433-220.531C440.965,98.886,342.08,0,220.532,0C98.93,0,0,98.886,0,220.433z"/>
</g>
<g>
	<g>
		<path fill-rule="evenodd" clip-rule="evenodd" fill="#FFFFFF" d="M388.122,263.776l0.446,0.099l-0.446,1.836V263.776
			L388.122,263.776z M388.122,256.562l5.294,1.275l-1.385,5.841l3.265,0.791l1.485-5.838l5.243,1.286l-1.68,6.827l-2.674-0.691
			l-0.79,3.364l5.54,1.287l3.86-16.132l-2.771-0.691l-0.595,2.277l-14.794-3.557V256.562L388.122,256.562z M388.122,250.416v-0.207
			l0.05,0.01L388.122,250.416L388.122,250.416z M388.122,238.693v-8.755c0.304-0.473,0.651-0.905,1.039-1.292l-1.039-0.081v-3.18
			l7.372,0.687l-0.296,2.97c-2.87,0.098-5.047,1.88-5.344,4.75c-0.1,1.781,1.087,3.363,2.868,3.563
			c2.971,0.197,3.168-2.08,4.455-5.543c0.396-0.89,1.385-5.641,6.927-5.145c2.076,0.098,5.838,2.177,5.343,7.125
			c-0.1,1.682-0.989,3.265-2.176,4.255l1.385,0.198l-0.297,3.066l-6.434-0.593l0.299-2.968c1.087-0.099,2.177-0.496,2.87-1.188
			c0.791-0.691,1.286-1.583,1.385-2.77c0.197-1.781-0.793-3.166-2.672-3.266c-1.979-0.197-2.673,2.673-3.762,5.543
			c-1.088,2.77-2.473,5.541-7.124,5.146C390.845,241.041,389.225,240.113,388.122,238.693L388.122,238.693z M388.122,212.32v-1.68
			l15.586-9.803v-0.099l-13.46,0.99l0.198,2.374l-2.324,0.167v-8.025l1.732-0.158l0.197,2.079l15.635-1.187l-0.099-1.98l2.87-0.199
			l0.494,7.027l-12.766,7.817v0.099l10.392-0.792l-0.197-2.177l2.967-0.199l0.497,8.015l-2.87,0.2l-0.198-2.276l-18.506,1.385
			L388.122,212.32L388.122,212.32z M388.122,187.273v-3.562l2.919-0.685l0.79,3.363L388.122,187.273L388.122,187.273z
			 M388.122,176.587l4.601-1.083l1.386,5.838l3.267-0.794l-1.386-5.836l5.343-1.188l1.584,6.728l-2.672,0.693l0.792,3.267
			l5.542-1.287l-3.86-16.131l-2.77,0.693l0.493,2.177l-12.319,2.865V176.587L388.122,176.587z M388.122,155.428v-4.656l3.414-2.977
			v-0.098l-3.414,0.262v-3.354l3.414-0.175l-0.892-2.177l2.771-1.088l4.157,10.292l-2.672,1.088l-0.892-2.177L388.122,155.428z
			 M387.677,267.141v-3.463l0.445,0.098v1.935l-0.348,1.431H387.677L387.677,267.141z M388.122,144.606v3.354l-0.445,0.034v-3.364
			L388.122,144.606L388.122,144.606z M388.122,150.772v4.656l-0.445,0.383v-4.651L388.122,150.772L388.122,150.772z
			 M388.122,172.531v4.056l-0.445,0.104v-4.057L388.122,172.531L388.122,172.531z M388.122,183.711v3.562l-0.445,0.106v-3.563
			L388.122,183.711L388.122,183.711z M388.122,196.246v8.025l-0.445,0.032v-8.016L388.122,196.246L388.122,196.246z
			 M388.122,210.641v1.68l-0.149-1.586L388.122,210.641L388.122,210.641z M388.122,225.385v3.18l-0.247-0.02l0.196-3.165
			L388.122,225.385L388.122,225.385z M388.122,229.938v8.755c-0.159-0.206-0.308-0.421-0.445-0.646v-7.323
			C387.813,230.45,387.962,230.189,388.122,229.938L388.122,229.938z M388.122,250.208v0.207l-0.445,1.783v-2.077L388.122,250.208
			L388.122,250.208z M388.122,252.602v3.96l-0.445-0.107v-3.96L388.122,252.602L388.122,252.602z M306.677,74.416v-3.414
			l1.733,0.991l0.097-0.99v4.453L306.677,74.416L306.677,74.416z M306.677,66.201v-3.396l1.83,1.072v3.365L306.677,66.201
			L306.677,66.201z M306.677,61.263v-4.467l1.83-1.627v4.453L306.677,61.263L306.677,61.263z M387.677,144.629l-12.668,0.791
			l-0.692-1.583l-2.671,1.088l2.968,7.126l2.672-1.088l-0.891-2.178l4.454-0.198l2.475,6.038l-3.365,2.968l-0.89-2.178l-2.674,1.088
			l3.067,7.324l2.673-1.09l-0.593-1.483l6.135-5.443v-4.651l-1.88,1.682l-1.882-4.65l3.762-0.198V144.629L387.677,144.629z
			 M387.677,172.635l-2.476,0.692l-0.593-2.276l-2.871,0.693l3.861,16.129l2.078-0.493v-3.563l-1.682-6.729l1.682-0.396V172.635
			L387.677,172.635z M387.677,196.287l-0.692,0.098l0.592,7.917h0.101V196.287L387.677,196.287z M387.677,230.724
			c-0.396,0.891-0.692,1.978-0.792,3.168c-0.1,1.482,0.198,2.966,0.792,4.154V230.724L387.677,230.724z M387.677,250.122
			l-2.275-0.595l-3.96,16.131l6.235,1.483v-3.463l-2.573-0.694l1.682-6.729l0.892,0.199v-3.96v-0.296V250.122L387.677,250.122z
			 M361.452,127.409v-6.63l12.767-8.016l-1.091-1.683l2.476-1.583l3.76,6.037l-7.52,12.864l8.808-5.442l-1.189-1.881l2.477-1.583
			l4.255,6.829l-2.476,1.584l-1.188-1.979l-15.834,9.896l-1.683-2.573l9.303-16.23h-0.098l-11.38,7.126l1.285,2.079l-2.476,1.483
			L361.452,127.409L361.452,127.409z M361.452,97.227v-5.246l3.958,4.553l-2.177,1.979l-1.484-1.782L361.452,97.227L361.452,97.227z
			 M361.452,91.981l-3.365-3.759l-2.274,1.979l1.583,1.781l-2.377,0.991v3.562l3.464-1.485l0.101,0.1l-3.564,6.135v7.224
			l6.434-11.281V91.981L361.452,91.981z M361.452,120.779l-0.495,0.296l-1.088-1.682l-2.474,1.584l4.057,6.432V120.779
			L361.452,120.779z M355.019,92.972v3.562l-3.563,1.484l3.267,3.761l0.297-0.495v7.224l-1.583,2.573l1.091,1.287l-2.179,1.88
			l-5.245-5.937l2.177-1.879l1.585,1.681l2.177-3.858l-4.355-4.85l-4.156,1.683l1.583,1.781l-2.176,1.881l-3.067-3.365v-4.255
			l0.097-0.101l1.188,1.387L355.019,92.972L355.019,92.972z M340.869,80.997v-8.708c1.087,1.089,2.177,2.573,2.076,4.75
			c0,1.584-0.89,2.672-1.088,2.871C341.561,80.305,341.165,80.7,340.869,80.997L340.869,80.997z M340.869,72.289
			c-0.595-0.593-1.189-0.99-1.583-1.286l-3.96-3.266v3.761l1.387,1.088c1.581,1.287,3.659,2.969,1.979,5.048
			c-1.09,1.385-2.276,1.582-3.366,1.088v8.214l0.693-0.892c0.791-1.088,1.583-2.375,0.101-4.354v-0.099
			c1.879,0.594,3.463,0.396,4.749-0.595V72.289L340.869,72.289z M340.869,97.128l-2.08,1.879l2.08,2.376V97.128L340.869,97.128z
			 M335.326,67.737v3.761l-0.297-0.199l-3.661,4.652l1.978,1.583c0.595,0.496,1.287,0.989,1.98,1.188v8.214l-2.375,2.87l1.682,1.286
			l-1.88,2.276l-4.649-3.76l4.749-5.839c1.287-1.583-0.298-3.067-1.484-4.057l-1.881-1.485l-4.255,5.344l1.88,1.484l-1.88,2.276
			l-6.63-5.344l1.781-2.276l1.781,1.385l9.895-12.172l-1.78-1.484l1.78-2.276L335.326,67.737L335.326,67.737z M308.507,75.456
			l3.267,1.781l1.484-2.573l-1.484-0.792l3.267-16.229l1.979,1.187l1.483-2.573l-9.697-5.442l-0.299,0.297v2.87l0.893,0.495
			l-0.893,0.692v4.453l2.871-2.573l0.099,0.1l-1.483,7.52l-1.486-0.792v3.365l0.693,0.296l-0.693,3.464V75.456L308.507,75.456z
			 M308.507,51.111v2.87l-1.185-0.693L308.507,51.111z M306.677,56.795v4.467l-1.04,0.933l1.04,0.609v3.396l-3.217-1.829
			l-3.363,2.869l2.076,1.188l-1.482,2.572l-6.73-3.859l1.485-2.475l1.485,0.792L306.677,56.795L306.677,56.795z M306.677,71.002
			l-0.347-0.198l-1.483,2.573l1.83,1.039V71.002L306.677,71.002z M204.897,413.787v-4.436c0.242,0.99,0.907,1.736,2.176,1.876
			c0.297,0,0.595,0,0.793-0.098l0,0l0,0v3.167c-0.296,0-0.693,0-0.99,0C206.144,414.216,205.484,414.042,204.897,413.787
			L204.897,413.787z M204.897,405.776c0.579,0.287,1.189,0.454,1.781,0.503c0.395,0.101,0.791,0,1.188,0v-2.968c0,0-0.198,0-0.296,0
			c-1.287-0.1-2.475-1.482-2.277-3.463c0.198-1.882,1.385-2.97,2.573-3.068v-3.068c-1.146,0.033-2.138,0.314-2.969,0.805V405.776
			L204.897,405.776z M204.897,51.642v-3.595c0.442,0.04,0.903,0.04,1.386-0.003c3.265-0.297,4.748-2.078,5.74-4.552l3.561-0.297
			c-0.792,5.244-4.353,8.016-9.005,8.412C206.009,51.662,205.447,51.672,204.897,51.642L204.897,51.642z M204.897,32.813V29.22
			c0.965-0.083,3.804-0.065,5.542,1.307l-0.1-1.287l3.066-0.296l0.595,6.926l-3.068,0.298c-0.395-1.188-1.287-2.079-2.374-2.672
			c-1.09-0.594-2.377-0.792-3.563-0.693L204.897,32.813L204.897,32.813z M284.362,54.278v-3.167c1.285,0,2.771-0.496,3.562-2.474
			c1.387-3.761-2.373-5.146-3.562-5.542v-3.067l1.682,0.692c3.958,1.385,7.224,4.452,5.443,9.302
			C290.103,53.783,287.134,54.674,284.362,54.278L284.362,54.278z M284.362,40.028l-6.039-2.178l-0.987,2.771l2.275,0.792
			l-5.444,14.746l-2.274-0.792l-0.99,2.672l8.412,3.166l0.989-2.77l-2.571-0.891l1.78-4.75l2.573,0.989
			c0.691,0.198,1.484,0.396,2.276,0.495v-3.167c-1.484,0-2.771-0.694-2.971-0.694l-0.891-0.395l2.771-7.324l0.791,0.297
			c0.101,0,0.2,0.099,0.299,0.099V40.028L284.362,40.028z M237.85,51.902V48.34c3.959-0.099,7.027-3.067,7.422-7.125
			c0.396-4.155-2.373-7.817-6.63-8.213c-0.198,0-0.495,0-0.792,0V29.34c0.297,0,0.692,0.099,1.089,0.099
			c6.433,0.594,10.786,6.135,10.193,12.271C248.538,47.746,243.491,51.902,237.85,51.902L237.85,51.902z M237.85,29.34
			c-6.036,0-10.688,4.354-11.281,10.292c-0.493,5.146,2.375,11.479,10.193,12.172c0.396,0.098,0.693,0.098,1.088,0.098V48.34
			c-0.296,0-0.595-0.099-0.989-0.099c-3.958-0.396-6.828-3.859-6.432-7.917c0.395-4.255,3.165-7.323,7.421-7.323V29.34L237.85,29.34
			z M252.102,406.379v-2.87l2.076-0.395l-1.483-6.929h-0.1l-0.493,1.386v-6.532l2.474-0.493l2.671,11.875l1.979-0.497l0.595,2.773
			l-1.979,0.396l0.494,1.978l1.88-0.395l0.595,2.571l-7.323,1.684l-0.495-2.573l2.276-0.594l-0.396-1.978L252.102,406.379
			L252.102,406.379z M252.102,391.04l-0.397,0.099l-4.353,13.263l0.691,2.969l4.059-0.99v-2.87l-2.08,0.495l2.08-6.433V391.04
			L252.102,391.04z M207.866,414.296c2.672-0.198,4.946-2.079,5.343-6.037l0.693-8.017c0.297-3.562-2.473-6.234-5.246-6.432
			c-0.197,0-0.495-0.1-0.79-0.1v3.068c0.099,0,0.196,0,0.295,0c1.386,0.198,2.474,1.485,2.376,3.463
			c-0.198,1.88-1.386,2.969-2.672,3.068v2.968c0.79-0.198,1.583-0.492,2.176-0.987l-0.196,2.274c-0.2,2.179-0.892,3.266-1.98,3.563
			V414.296L207.866,414.296z M225.085,414.396l-0.199-2.971l4.948-6.926c0.989-1.385,2.475-3.169,2.376-5.049
			c-0.198-2.077-1.881-2.473-2.574-2.374c-1.087,0.1-2.572,0.495-2.474,3.265l0.198,2.08l-3.167,0.196l-0.1-2.177
			c-0.396-5.345,3.564-6.333,5.146-6.433c3.958-0.297,6.038,2.573,6.235,5.046c0.198,2.377-0.891,3.762-2.277,5.74l-4.255,6.335
			l4.355-0.298l-0.101-2.671l3.07-0.199l0.394,5.739L225.085,414.396z M204.897,29.22v3.593c-4.387,0.442-6.628,4.079-6.333,8.204
			c0.354,3.627,2.607,6.701,6.333,7.029v3.595c-5.371-0.304-9.655-4.592-10.193-10.427c-0.594-7.52,4.848-11.578,9.996-11.974
			C204.751,29.233,204.818,29.227,204.897,29.22L204.897,29.22z M204.897,394.516v11.26c-1.741-0.866-3.192-2.833-2.969-6.028
			C202.192,397.364,203.212,395.51,204.897,394.516L204.897,394.516z M204.897,409.351v4.436c-2.346-1.021-3.503-3.33-3.266-6.022
			l3.167,0.297C204.77,408.516,204.799,408.953,204.897,409.351L204.897,409.351z M129.836,65.701v-8.188l1.732,3.197l5.244-2.869
			l1.683,2.968l-5.245,2.87l3.267,6.037l6.135-3.365l-1.681-3.067l2.967-1.683l3.067,5.641l-14.446,8.016l-1.487-2.573l2.08-1.089
			L129.836,65.701L129.836,65.701z M129.836,55.492v-3.324l6.779-3.729l2.77,4.948l-2.969,1.682l-1.385-2.474L129.836,55.492
			L129.836,55.492z M129.836,49.453l1.137-4.477l-1.137,0.594V49.453L129.836,49.453z M178.771,55.763l-0.692-2.87l2.275-0.495
			l-3.562-15.339l-2.178,0.594l-0.691-2.871l8.214-1.88l0.594,2.87l-2.179,0.495l3.563,15.24l2.177-0.495l0.595,2.87L178.771,55.763
			L178.771,55.763z M149.678,49.033l-2.078-5.641l15.141-5.542l2.078,5.642l-3.168,1.187l-1.088-2.869l-2.573,0.89l5.443,14.746
			l2.375-0.891l1.09,2.771l-8.512,3.067l-1.088-2.771l2.474-0.891l-5.443-14.646l-2.473,0.891l0.99,2.87L149.678,49.033
			L149.678,49.033z M179.169,408.952l0.592-2.572l2.276,0.495l3.365-13.953l-2.178-0.496l0.693-2.573l5.443,1.286l-4.157,16.526
			l2.276,0.595l-0.593,2.572L179.169,408.952z M129.836,45.569v3.883l-0.346,1.361l-0.792,0.396v-5.047L129.836,45.569
			L129.836,45.569z M129.836,52.167v3.324l-0.841,0.469l0.841,1.552v8.188l-1.138-2.022V52.793L129.836,52.167L129.836,52.167z
			 M36.615,264.477v-3.781c0.112-0.518,0.285-1.02,0.543-1.472l-0.543,0.117v-3.23l4.602-1.239v4.057
			c-0.397,0.495-0.693,0.989-0.892,1.583c-0.395,1.187-0.395,2.473-0.098,3.66c0.198,0.894,0.593,1.684,0.99,2.377v5.046
			c-2.278-1.584-3.859-3.958-4.454-6.433C36.724,265.023,36.669,264.785,36.615,264.477L36.615,264.477z M36.615,240.225v-3.903
			l4.602-0.452l0,0l0,0v3.958L36.615,240.225L36.615,240.225z M36.615,214.533l4.602,0.26v-3.86l-4.602-0.333V214.533
			L36.615,214.533z M36.615,202.925v-3.868l4.602,0.296v3.86L36.615,202.925L36.615,202.925z M36.615,185.229v-10.737
			c1.022-2.434,2.498-3.615,4.602-3.539v3.86c-1.781,0.098-2.376,1.879-2.573,2.671l-0.397,1.78l2.97,0.692v3.96l-3.761-0.793
			L36.96,185.3L36.615,185.229L36.615,185.229z M128.698,46.163l-1.783,1.089l-0.396,5.146l2.179-1.188V46.163L128.698,46.163z
			 M128.698,52.793l-4.948,2.672v3.364l1.78-0.988l3.168,5.838V52.793L128.698,52.793z M123.75,81.196v-3.464l1.682,2.178
			L123.75,81.196L123.75,81.196z M123.75,55.466v3.364l-0.2,0.1l-1.383-2.574L123.75,55.466L123.75,55.466z M123.75,77.731
			l-2.178-2.87l-2.77,2.079l2.078,2.77l-4.058,3.068l-9.5-12.469l2.079-1.583l-1.782-2.376l-5.245,3.959v3.661l1.88-1.386
			l9.501,12.568l-1.98,1.484l1.782,2.277l10.193-7.718V77.731L123.75,77.731z M102.374,99.206v-3.759l1.88,1.88L102.374,99.206
			L102.374,99.206z M102.374,70.31v3.661l-0.098,0.099l-1.781-2.375L102.374,70.31L102.374,70.31z M102.374,95.446v3.759
			l-4.453,4.552l-2.079-1.979l1.782-1.88L86.441,88.914l-1.88,1.88l2.178,2.178l-2.376,2.474l-4.255-4.256l11.282-11.479
			l4.353,4.156l-2.473,2.474l-2.176-2.177l-1.88,1.979l11.183,10.985l1.78-1.881L102.374,95.446L102.374,95.446z M73.476,121.769
			v-5.641l0.792,1.088l2.87-4.057l-3.662-1.088v-3.761l13.063,4.057l0.99-1.385l2.377,1.682l-4.653,6.531l-2.375-1.781l1.384-1.88
			l-4.254-1.287l-3.858,5.344l2.573,3.662l1.385-1.88l2.375,1.682l-4.453,6.235l-2.375-1.682l0.989-1.385L73.476,121.769
			L73.476,121.769z M50.418,268.825c3.464-1.287,5.74-4.355,4.652-8.414c-0.692-2.869-2.474-4.155-4.652-4.75V252.1
			c4.355,0.495,7.126,3.365,8.115,7.422c1.585,5.936-1.977,11.676-8.115,13.359V268.825L50.418,268.825z M73.476,108.311
			l-2.77-0.891l1.387-1.879l-2.377-1.683l-6.53,9.104l2.374,1.683l1.387-1.979l6.529,9.104v-5.641l-3.66-5.145v-0.1l3.66,1.188
			V108.311L73.476,108.311z M50.418,238.938v-3.86l0.397-0.1l-0.397-4.552v-3.958l2.475-0.197l1.387,14.744l-2.87,0.296
			l-0.297-2.373H50.418L50.418,238.938z M50.418,213.999v-13.26c2.575,1.584,3.464,4.354,3.266,6.829
			C53.587,210.338,52.398,212.712,50.418,213.999L50.418,213.999z M50.418,185.993v-3.956l3.266,0.691l0.299-1.583
			c0.593-2.474,0.197-4.354-2.573-4.948c-0.397-0.098-0.693-0.098-0.992-0.098v-3.762c0.595-0.099,1.289-0.099,1.979,0.099
			c3.465,0.792,5.049,3.365,4.85,6.828c0,1.385-0.691,3.763-0.891,4.652l-1.188,5.343l-2.869-0.496l0.493-2.276L50.418,185.993
			L50.418,185.993z M50.418,158.483v-4.156l0.792,0.297l2.179-5.542l3.168,1.188l-2.178,5.64l6.331,2.475l2.573-6.532l-3.265-1.286
			l1.188-3.167l6.035,2.277l-6.035,15.536l-2.673-1.088l0.793-2.177L50.418,158.483L50.418,158.483z M50.418,146.806v-3.662
			l2.078,0.791l-1.287,3.168L50.418,146.806L50.418,146.806z M42.6,257.837l-0.792-3.065l-0.592,0.1v4.057
			C41.612,258.433,42.009,258.136,42.6,257.837L42.6,257.837z M41.217,266.548v5.046c2.277,1.583,5.343,2.277,9.005,1.287
			c0.098,0,0.098,0,0.196,0v-4.057c-0.395,0.099-0.692,0.196-0.988,0.297C46.163,270.01,42.997,269.122,41.217,266.548
			L41.217,266.548z M50.418,255.661V252.1c-0.594-0.099-1.088-0.099-1.682-0.099l0.892,3.464
			C49.925,255.563,50.123,255.563,50.418,255.661L50.418,255.661z M50.418,143.145l-3.265-1.287l-5.937,15.239v0.297l2.67,0.99
			l0.793-2.078l5.738,2.177v-4.156l-4.353-1.682l2.573-6.532l1.78,0.693V143.145L50.418,143.145z M50.418,172.337
			c-1.682,0.099-3.066,1.089-4.155,2.771c-0.397-2.08-1.485-3.563-3.563-3.958c-0.495-0.1-0.99-0.198-1.483-0.198v3.86
			c0.197,0,0.493,0.098,0.792,0.098c2.274,0.594,2.375,2.474,1.978,4.057l-0.296,1.582l-2.474-0.593v3.96l9.202,2.076v-3.956
			l-3.858-0.892l0.495-2.276c0.099-0.594,0.989-2.77,3.364-2.77V172.337L50.418,172.337z M50.418,200.739
			c-1.088-0.593-2.375-0.99-3.958-1.089l-5.244-0.297v3.86l3.363,0.198c2.574,0.198,5.74,0,5.543,3.958
			c-0.298,4.454-3.364,3.86-5.938,3.662l-2.968-0.099v3.86l4.849,0.297c1.682,0.098,3.167-0.297,4.353-1.09V200.739L50.418,200.739z
			 M50.418,226.469l-3.858,0.296l0.297,3.463l3.463-0.296l0.098,0.495V226.469L50.418,226.469z M50.418,235.079l-9.202,0.792v3.958
			l9.202-0.89V235.079L50.418,235.079z M41.217,157.097v0.297h-0.1L41.217,157.097z M36.615,174.492v10.737l-2.524-0.522l1.683-7.52
			C36.013,176.162,36.292,175.264,36.615,174.492L36.615,174.492z M36.615,199.057v3.868l-1.732-0.108l-0.197,2.376l-2.87-0.198
			l0.493-8.313l2.87,0.099l-0.098,2.178L36.615,199.057L36.615,199.057z M36.615,210.599v3.934l-2.425-0.137l-0.199,2.079
			l-2.868-0.199l0.493-8.313l2.87,0.199l-0.1,2.276L36.615,210.599L36.615,210.599z M36.615,236.322v3.903l-1.138,0.099l0.297,2.375
			l-2.97,0.296l-0.791-8.907l2.869-0.196l0.296,2.571L36.615,236.322L36.615,236.322z M36.615,256.111v3.23l-0.841,0.181
			l-0.793-2.971L36.615,256.111L36.615,256.111z M36.615,260.696v3.781C36.458,263.58,36.314,262.084,36.615,260.696z"/>
	</g>
</g>
<g>
	<path fill="#C90C0F" d="M64.273,220.333c0,28.176,7.412,54.593,20.386,77.444c5.755,10.136,12.602,19.572,20.386,28.146V114.841
		c-7.784,8.575-14.631,18.012-20.386,28.145C71.685,165.832,64.273,192.227,64.273,220.333z"/>
	<path fill="#C90C0F" d="M244.481,375.602c16.427-2.375,31.963-7.323,46.212-14.448V79.513
		c-14.249-7.027-29.785-11.975-46.212-14.448V375.602z"/>
	<path fill="#C90C0F" d="M151.656,79.612v281.442c7.404,3.677,15.125,6.773,23.107,9.25c7.487,2.323,15.204,4.101,23.107,5.298
		V65.164c-7.903,1.149-15.62,2.926-23.107,5.249C166.781,72.889,159.061,75.986,151.656,79.612z"/>
	<path fill="#C90C0F" d="M357.791,58.548C320.743,27.117,272.818,8.124,220.532,8.124l-0.051,0
		c-15.692,0.004-30.986,1.731-45.718,4.975c-33.719,7.424-64.458,22.868-90.104,44.224C37.863,96.299,8.026,154.948,8.026,220.433
		c0,65.545,29.837,124.249,76.634,163.26c25.646,21.377,56.384,36.835,90.104,44.266c14.732,3.247,30.026,4.976,45.718,4.979h0.051
		c52.286,0,100.211-19.011,137.259-50.471c45.939-39.011,75.149-97.17,75.149-162.035C432.94,155.627,403.73,97.523,357.791,58.548z
		 M357.791,368.072c-36.022,33.544-84.282,54.101-137.259,54.101h-0.051c-15.72-0.004-31.023-1.818-45.718-5.24
		c-34.165-7.955-65.023-24.617-90.104-47.507c-40.45-36.919-65.87-90.042-65.87-148.993c0-58.894,25.42-111.965,65.87-148.848
		c25.081-22.868,55.939-39.513,90.104-47.461c14.695-3.418,29.999-5.231,45.718-5.235l0.051,0
		c52.977,0,101.236,20.537,137.259,54.049c39.58,36.823,64.383,89.314,64.383,147.496
		C422.174,278.67,397.371,331.212,357.791,368.072z"/>
	<path fill="#C90C0F" d="M357.791,142.831c-5.785-10.156-12.666-19.607-20.485-28.187v211.478c7.819-8.579,14.7-18.04,20.485-28.209
		c13.029-22.906,20.484-49.411,20.484-77.58C378.275,192.165,370.82,165.708,357.791,142.831z"/>
</g>
<g>
	<path d="M150.081,334.77c-1.301,0-2.609-0.15-3.886-0.447c-4.701-1.086-9.319-4.21-13.726-9.285l-3.16-3.64l4.775,0.65
		c0.2,0.026,0.401,0.04,0.605,0.04c3.017,0,7.354-3.071,10.243-9.932c1.67-3.985,2.604-8.916,2.716-14.315
		c-0.694-0.359-1.389-0.742-2.05-1.184c-16.812-10.06-29.2-32.781-38.245-49.372c-5.015-9.199-9.346-17.143-12.394-19.087
		l-2.917-1.862l3.189-1.342c3.382-1.424,4.686-9.269,6.195-18.351c2.041-12.286,4.582-27.576,13.513-40.203l0.068-0.089
		c10.028-12.466,20.403-21.229,30.836-26.043c6.481-3.036,12.995-4.577,19.351-4.577c5.605,0,10.09,1.212,13.102,2.375
		c2.475-1.848,5.22-3.642,8.175-5.343c10.871-6.565,24.32-12.417,39.942-17.375l2.754-0.875l-0.407,2.861
		c-4.058,28.492-4.835,66.131,2.573,85.996l0.218,0.583l-0.186,0.593c-4.356,13.94-5.275,41.475-4.399,46.34l0.028,0.274
		c0.448,16.921,14.42,19.532,15.015,19.635l0.034,0.006l-1.465-35.679l0.013-0.129c1.396-13.675-3.495-26.315-5.94-29.981
		l-0.937-1.404l1.333-1.036c6.904-5.37,10.399-65.273-2.533-87.611l-1.095-1.891l2.059-0.73c1.65-0.585,3.156-0.87,4.604-0.87
		c2.754,0,4.806,1.013,6.977,2.086c2.644,1.306,5.378,2.656,10.18,2.656c0.635,0,1.299-0.024,1.978-0.073
		c7.687-5.188,15.216-8.229,22.387-9.038c1.187-0.125,2.361-0.187,3.506-0.187c18.636,0,31.839,15.595,37.178,43.911
		c2.713,18.717,8.346,21.49,8.402,21.516l3.465,1.26l-3.177,1.953c-4.816,3.063-8.325,14.281-9.29,18.417
		c-3.582,21.139-13.735,38.712-14.166,39.451c-5.38,10.021-13.635,12.137-19.607,12.137c-2.118,0-4.314-0.268-6.528-0.796
		c-3-0.731-6-1.953-8.712-3.528l0.233,22.667c2.187-1.17,5.121-3.113,7.877-4.991c12.266-8.368,29.496-22.331,29.668-22.471
		c15.551-12.56,27.18-15.934,27.667-16.071l5.214-1.47l-3.274,4.315c-4.423,5.829-6.594,11.715-7.477,14.624
		c14.386,2.582,17.448,13.016,17.576,13.479l0.808,2.903l-2.944-0.644c-0.818-0.179-1.717-0.27-2.67-0.27
		c-6.909,0-15.458,4.615-20.565,7.372c-1.281,0.692-2.389,1.29-3.219,1.677l-0.347,0.121c-3.718,0.885-25.31,13.975-36.91,21.008
		l-1.562,0.947c-4.08,2.532-7.315,4.518-8.841,5.451c0.607,7.068,2.234,14.377,8.603,17.052c2.608,1.021,6.098,1.267,10.116,0.668
		l3.284-0.489l-1.36,3.029c-3.279,7.306-7.251,12.405-11.804,15.159c-2.581,1.529-5.338,2.3-8.207,2.3c0,0,0,0-0.001,0
		c-5.361,0-9.839-2.676-12.165-4.397c-2.91,4.161-7.186,6.425-12.236,6.425c-6.521,0-13.6-3.854-17.614-9.59l-1.549-2.213
		l2.634-0.599c3.526-0.802,11.298-3.626,11.705-12.945c-0.66,0.227-1.354,0.468-2.08,0.721c-9.375,3.26-23.543,8.188-41.209,8.188
		c-4.32,0-8.661-0.305-12.899-0.906c-1.369-0.157-2.818-0.376-4.37-0.659c1.521,2.543,3.397,4.533,5.602,5.94
		c2.1,1.37,4.562,2.116,7.542,2.292l2.186,0.129l-0.531,2.124c-1.041,4.166-4.344,7.375-9.55,9.28
		c-3.15,1.146-6.856,1.75-10.722,1.75c-4.627,0-10.29-0.938-12.861-3.465c-0.466,0.246-0.988,0.543-1.548,0.861
		C159.729,332.323,155.424,334.77,150.081,334.77z M137.637,325.214c3.109,2.979,6.253,4.849,9.378,5.57
		c1.01,0.235,2.041,0.354,3.066,0.354c4.383,0,8.205-2.174,10.996-3.761c1.262-0.718,2.352-1.337,3.331-1.683l1.635-0.577
		l0.652,1.606c0.461,1.137,4.497,2.783,10.585,2.783c3.447,0,6.725-0.529,9.478-1.53c2.259-0.827,4.997-2.29,6.46-4.773
		c-2.563-0.432-4.854-1.299-6.832-2.59c-3.685-2.352-6.583-5.993-8.6-10.813l-1.354-3.237l3.425,0.764
		c2.881,0.644,5.41,1.086,7.729,1.354c4.118,0.583,8.286,0.876,12.437,0.876c17.053,0,30.872-4.806,40.016-7.986
		c1.665-0.578,3.162-1.099,4.48-1.521l2.179-0.697l0.185,2.28c0.713,8.797-3.628,15.482-11.729,18.346
		c3.441,3.627,8.47,6.019,12.982,6.019c3.083,0,7.353-1.105,10.18-6.373l1.131-2.107l1.726,1.655
		c0.048,0.046,5.115,4.797,11.365,4.797c0.001,0,0.001,0,0.001,0c2.209,0,4.343-0.6,6.342-1.784
		c3.304-1.998,6.315-5.578,8.968-10.659c-3.314,0.16-6.229-0.256-8.705-1.228c-9.696-4.072-10.571-16.112-10.944-21.253
		l-0.081-1.105l0.946-0.577c0.004-0.002,4.057-2.472,9.784-6.027l1.58-0.957c17.456-10.584,33.472-20.177,37.746-21.382
		c0.726-0.348,1.732-0.891,2.887-1.514c5.409-2.921,14.463-7.808,22.29-7.808c0.018,0,0.034,0,0.052,0
		c-1.847-2.946-6.124-7.456-15.315-8.538l-1.968-0.231l0.401-1.939c0.062-0.299,1.307-6.138,5.373-13.059
		c-4.735,2.142-12.32,6.216-21.157,13.354c-0.17,0.138-17.518,14.196-29.907,22.649c-5.178,3.526-8.861,5.841-11.232,6.489
		l-2.27,0.62l-0.358-34.809l2.936,2.18c3.001,2.228,6.67,3.947,10.332,4.84c1.929,0.46,3.842,0.694,5.677,0.694
		c4.981,0,11.877-1.783,16.439-10.279c0.134-0.231,10.303-17.848,13.763-38.336l0.021-0.106c0.138-0.596,3.137-13.344,8.933-19.123
		c-2.487-2.471-6.307-8.457-8.363-22.662c-4.967-26.333-16.902-40.876-33.597-40.876c-1.019,0-2.066,0.056-3.113,0.166
		c-6.686,0.754-13.8,3.681-21.131,8.698l-0.394,0.269l-0.475,0.042c-0.946,0.082-1.874,0.124-2.758,0.124
		c-5.649,0-9.053-1.681-11.788-3.031c-2.363-1.168-4.18-2.011-6.687-1.599c11.548,23.403,9.589,78.199,1.651,89.015
		c2.86,5.168,7.146,17.496,5.803,31.004l1.926,46.918l-1.121,0.503c-11.127,4.994-22.68,7.527-34.337,7.527
		c-8.033,0.001-16.053-1.207-23.839-3.588c-4.102-1.212-8.268-2.831-12.718-4.944l-1.024-0.486l-0.013-1.134
		c-0.06-5.187,0.091-10.186,0.224-14.596c0.089-2.966,0.173-5.769,0.173-8.087v-1.953l1.948,0.143
		c0.026,0.001,0.234,0.014,0.59,0.014c1.569,0,5.745-0.229,10.629-2.342c4.328-2,8.134-5.022,11.274-8.966l2.199-2.762l0.967,3.395
		c0.207,0.724,4.757,17.514-11.004,32.125c1.876,2.541,5.593,4.073,10.07,4.073c4.381,0,8.677-1.476,11.787-4.048l1.005-0.832
		l1.109,0.688c0.061,0.038,6.351,3.874,13.012,3.874c5.193,0,9.216-2.362,11.982-7.027c-4.78-1.641-15.225-6.976-15.69-22.34
		c-0.89-5.504-0.045-32.611,4.351-47.33c-7.16-19.919-6.679-56.032-2.947-84.321c-14.182,4.676-26.436,10.105-36.456,16.156
		c-3.183,1.833-6.078,3.752-8.636,5.724l-0.842,0.648l-0.978-0.416c-2.664-1.133-7.023-2.484-12.666-2.484
		c-5.82,0-11.815,1.426-17.82,4.238c-9.917,4.576-19.84,12.98-29.502,24.982c-8.424,11.938-10.886,26.75-12.864,38.655
		c-1.526,9.185-2.698,16.237-6.104,19.582c3.29,3.416,6.92,10.076,11.637,18.727c8.845,16.224,20.958,38.443,36.996,48.042
		c0.872,0.579,1.784,1.035,2.75,1.518l1.004,0.502v1.122c0,6.312-1.042,12.132-3.011,16.833
		C145.763,319.542,141.789,323.806,137.637,325.214z M176.714,278.847c3.893,1.798,7.56,3.197,11.179,4.267
		c13.554,4.145,27.772,4.53,41.467,1.141c-0.741,0.087-1.503,0.131-2.283,0.131c-6.002,0-11.521-2.564-13.815-3.789
		c-3.636,2.622-8.337,4.106-13.099,4.106c-6.525,0-11.902-2.791-14.033-7.283l-0.591-1.246l1.042-0.904
		c10.955-9.501,11.919-20.304,11.551-25.791c-2.928,2.964-6.276,5.325-9.993,7.042c-4.662,2.018-8.773,2.521-11.033,2.631
		c-0.028,1.951-0.093,4.123-0.161,6.39C176.824,269.59,176.688,274.139,176.714,278.847z M242.237,275.486
		c-1.977,3.366-4.543,5.811-7.616,7.276c2.617-0.839,5.217-1.815,7.794-2.929L242.237,275.486z M149.433,263.585l-3.151-3.915
		c-0.111-0.138-0.222-0.267-0.33-0.393c-0.272-0.318-0.579-0.677-0.85-1.109c-8.639-11.553-11.277-23.434-7.208-32.116
		c-16.707-19.505-6.383-49.401,7.441-62.93c5.395-5.283,11.351-8.06,16.716-7.739l1.709,0.1v2.49l-0.563,0.636
		c-10.597,10.103-10.641,22.937-10.684,35.349c-0.032,9.129-0.061,17.752-4.374,24.573l-0.2,0.261l-3.787,4.103
		c1.886,2.948,3.225,5.691,4.175,8.54c1.799,5.727,1.63,11.247,1.373,19.603c-0.07,2.278-0.147,4.766-0.19,7.521L149.433,263.585z
		 M141.921,226.196l-0.26,0.465c-3.808,6.822-2.164,16.546,4.343,26.474c0.022-0.757,0.045-1.491,0.067-2.206
		c0.246-7.986,0.408-13.263-1.198-18.373C144.172,230.45,143.214,228.38,141.921,226.196z M157.361,159.613
		c-3.11,0.971-6.372,3.057-9.484,6.105c-12.771,12.498-21.479,39.425-8.238,56.715l5.518-5.978
		c3.669-5.925,3.697-13.982,3.727-22.509C148.922,182.712,148.965,170.137,157.361,159.613z M172.127,237.093l-0.024-1.893
		c-0.048-3.742-0.17-7.61-0.298-11.705c-0.663-21.073-1.414-44.958,7.967-61.077l1.004-1.725l1.623,1.162
		c4.161,2.979,3.909,6.142,3.389,7.762c-0.919,2.86-3.955,5.065-6.264,5.732c-0.34,2.294-0.518,6.146,1.023,8.08
		c0.669,0.84,1.614,1.232,2.971,1.232c0,0,0.001,0,0.001,0c0.944,0,2.059-0.201,3.312-0.597l0.101-0.029
		c0.147-0.037,0.371-0.132,0.63-0.243l0.42-0.176c3.192-1.395,5.419-3.888,6.576-7.39c2.056-6.226,0.446-15.618-4.004-23.371
		l-0.808-1.407l1.308-0.96c1.565-1.149,3.371-2.125,5.367-2.901l1.125-0.437l0.838,0.867c2.585,2.673,5.842,24.875,4.744,43.791
		c-0.772,13.301-3.931,30.99-14.599,39.727c-4.15,3.366-8.894,5.148-14.511,5.455L172.127,237.093z M176.562,183.709
		c-1.981,12.485-1.537,26.63-1.127,39.672c0.107,3.404,0.209,6.651,0.269,9.811c4.012-0.519,7.472-1.991,10.532-4.472
		c10.911-8.936,13.357-28.774,13.487-43.842c0.049-5.692-0.225-11.049-0.657-15.769c0.097,2.983-0.247,5.796-1.059,8.256
		c-1.473,4.46-4.452,7.779-8.614,9.598l-0.406,0.17c-0.348,0.148-0.708,0.301-1.105,0.408c-1.59,0.498-3.057,0.751-4.361,0.751
		c0,0-0.001,0-0.002,0c-2.45,0-4.461-0.901-5.816-2.607C177.225,185.086,176.852,184.417,176.562,183.709z M181.829,166.238
		c-0.833,1.643-1.568,3.369-2.215,5.163c1.04-0.602,2.329-1.658,2.722-2.909C182.437,168.168,182.689,167.367,181.829,166.238z
		 M194.52,152.54c1.959,3.761,3.316,7.759,4.015,11.645c-0.745-5.975-1.686-10.443-2.35-12.541
		C195.603,151.922,195.048,152.221,194.52,152.54z M280.435,215.036l-0.314-0.106c-0.118-0.04-0.234-0.09-0.353-0.106l-0.353-0.041
		c-10.729-2.369-13.984-9.413-14.825-14.906c-1.42-9.277,3.044-19.792,6.535-23.436c-6.495-17.317-7.494-30.538-2.971-39.31
		c3.37-6.533,8.869-8.596,11.143-9.189c0.727-0.234,1.189-0.27,1.404-0.27l0.261,0.019c4.566,0.661,8.29,3.263,10.766,7.522
		c5.399,9.29,4.696,25.534-1.81,42.544c3.448,6.77,6.769,21.86,1.784,30.781c-2.272,4.066-6.054,6.309-10.936,6.486L280.435,215.036
		z M280.048,211.203c0.337,0.025,0.64,0.099,0.898,0.178c3.483-0.206,5.967-1.717,7.586-4.613
		c4.081-7.305,1.386-21.686-2.188-27.993l-0.427-0.753l0.316-0.805c6.294-16.04,7.218-31.81,2.354-40.178
		c-1.882-3.237-4.54-5.159-7.905-5.716c-0.071,0.016-0.173,0.043-0.306,0.087l-0.12,0.035c-1.761,0.451-6.15,2.069-8.875,7.351
		c-4.073,7.899-2.833,20.88,3.589,37.541l0.56,1.453l-1.35,0.775c-1.978,1.135-7.399,11.629-6.001,20.763
		C269.146,205.638,273.139,209.633,280.048,211.203z"/>
</g>
<path fill-rule="evenodd" clip-rule="evenodd" fill="#FFFFFF" d="M328.3,239.333c0,0,1.78-8.609,8.312-17.218
	c0,0-11.579,3.265-27.016,15.733c0,0-17.285,14.025-29.753,22.538l-0.037,0.024c-4.651,3.168-8.511,5.643-10.688,6.237
	l-0.296-28.799c3.066,2.277,6.926,4.156,10.983,5.146l0.037,0.008c8.7,2.062,18.379,0.175,24.109-10.498
	c0,0,10.394-17.812,13.953-38.893c0,0,3.563-15.438,10.097-19.593c0,0-6.533-2.375-9.5-22.86
	c-5.836-30.954-20.763-44.118-38.659-42.26l-0.037,0.003c-7.024,0.792-14.447,3.86-21.967,9.005
	c-13.66,1.188-14.55-7.125-23.753-3.859c13.063,22.563,10.093,83.719,2.076,89.954c2.377,3.564,7.721,16.625,6.236,31.173
	l1.881,45.819c-20.276,9.101-40.058,9.005-56.875,3.868l-0.026-0.009c-4.353-1.286-8.51-2.968-12.47-4.849
	c-0.1-8.708,0.397-16.922,0.397-22.662c0,0,5.442,0.396,12.073-2.473l0.026-0.013c3.853-1.784,8.096-4.651,11.947-9.488
	c0,0,4.85,17.021-11.58,31.271c3.567,7.522,17.32,8.413,25.336,1.781c0,0,20.09,12.47,28.6-5.838c0,0-16.03-2.672-16.526-21.377
	c-0.891-4.945,0-32.952,4.453-47.204c-7.123-19.099-7.123-55.614-2.67-86.886c-16.512,5.241-29.565,11.171-39.559,17.203
	l-0.026,0.016c-3.267,1.881-6.237,3.86-8.806,5.84c-4.653-1.979-16.33-5.542-31.966,1.78l-0.063,0.03
	c-8.991,4.163-19.159,11.878-30.119,25.503c-16.03,22.661-11.083,55.219-20.486,59.178c9.295,5.933,24.518,52.766,50.605,68.44
	l0.063,0.039c0.89,0.594,1.88,1.089,2.87,1.584c0,6.432-1.087,11.876-2.87,16.131l-0.063,0.147
	c-3.173,7.425-8.375,11.427-12.703,10.838c4.528,5.216,8.859,7.787,12.703,8.692l0.063,0.015c8.51,1.979,15.043-3.959,18.406-5.146
	c1.487,3.662,13.657,5.443,22.366,2.276l0.026-0.01c4.044-1.486,7.399-4.055,8.386-8.006c-3.354-0.197-6.114-1.082-8.386-2.557
	l-0.026-0.018c-3.563-2.274-6.137-5.739-7.917-9.994c2.67,0.596,5.343,1.088,7.917,1.385l0.026,0.004
	c26.51,3.751,47.479-5.446,57.668-8.71c0.89,10.983-6.533,15.733-13.063,17.218c6.233,8.906,21.373,13.658,27.906,1.485
	c0,0,9.696,9.303,19.891,3.265l0.037-0.022c3.752-2.283,7.595-6.633,11.05-14.327c-4.632,0.69-8.28,0.302-11.05-0.776l-0.037-0.014
	c-8.014-3.366-9.301-12.866-9.797-19.694c0,0,4.06-2.474,9.797-6.035l0.037-0.022c13.067-7.92,34.804-21.158,38.956-22.146
	c4.453-2.077,18.109-10.983,27.609-8.907C346.409,251.801,343.439,241.115,328.3,239.333z M161.946,157.296
	c-19.1,18.209-5.64,44.926-15.34,60.267l-0.063,0.068l-4.687,5.078c2.229,3.292,3.697,6.208,4.687,9.114l0.063,0.188
	c2.177,6.928,1.287,13.955,1.09,26.521c-0.397-0.493-0.793-0.891-1.09-1.385l-0.063-0.086c-8.264-11.06-11.204-22.796-6.466-31.285
	c-16.701-18.181-7.352-47.707,6.466-61.292l0.063-0.063c4.85-4.75,10.293-7.521,15.34-7.224
	C161.946,157.296,161.946,157.296,161.946,157.296z M181.342,163.333c7.323,5.245-1.187,10.787-3.363,10.391
	c0,0-3.764,16.23,9.399,12.073l0.026-0.006c0.385-0.102,0.778-0.294,1.26-0.49c11.776-5.145,9.997-21.967,3.463-33.348
	c1.483-1.089,3.167-1.979,4.95-2.672c2.965,3.066,12.162,62.889-9.673,80.827l-0.026,0.023c-3.66,2.968-8.016,4.75-13.459,5.046
	C173.622,212.019,170.456,182.037,181.342,163.333z M279.807,129.686l0.037-0.012c0.572-0.185,0.857-0.186,0.857-0.186
	c14.346,2.078,16.426,24.938,7.223,48.391c5.047,8.907,9.203,34.735-7.223,35.33c-0.285-0.096-0.572-0.191-0.857-0.199l-0.037-0.001
	c-22.86-5.047-11.184-33.349-6.53-36.021C258.133,137.701,275.552,130.774,279.807,129.686z"/>
</svg>
